<?xml version="1.0" encoding="UTF-8" standalone="no"?>
<svg width="24.01mm" height="24.01mm"
 viewBox="0 0 2401 2401"
 xmlns="http://www.w3.org/2000/svg" xmlns:xlink="http://www.w3.org/1999/xlink"  version="1.2" baseProfile="tiny">
<title>Proteus Design Suite SVG export</title>
<desc>Created by Proteus Design Suite</desc>
<defs>
</defs>
<g fill="none" stroke="black" stroke-width="1" fill-rule="evenodd" stroke-linecap="square" stroke-linejoin="bevel" >

<g fill="#000000" fill-opacity="1" stroke="none" transform="matrix(1,0,0,1,0,0)"
font-family="MS Shell Dlg 2" font-size="264.583" font-weight="400" font-style="normal" 
>
<path vector-effect="non-scaling-stroke" fill-rule="evenodd" d="M0,0 L2401,0 L2401,2401 L0,2401 L0,0"/>
</g>

<g fill="none" stroke="#ffffff" stroke-opacity="1" stroke-width="100" stroke-linecap="round" stroke-linejoin="bevel" transform="matrix(1,0,0,1,0,0)"
font-family="MS Shell Dlg 2" font-size="264.583" font-weight="400" font-style="normal" 
>
<polyline fill="none" vector-effect="none" points="350,1820 1015,1820 " />
</g>

<g fill="#ffffff" fill-opacity="1" stroke="none" transform="matrix(1,0,0,1,0,0)"
font-family="MS Shell Dlg 2" font-size="264.583" font-weight="400" font-style="normal" 
>
<path vector-effect="non-scaling-stroke" fill-rule="evenodd" d="M1065,1820 C1065,1847.61 1042.61,1870 1015,1870 C987.386,1870 965,1847.61 965,1820 C965,1792.39 987.386,1770 1015,1770 C1042.61,1770 1065,1792.39 1065,1820 "/>
</g>

<g fill="none" stroke="#ffffff" stroke-opacity="1" stroke-width="100" stroke-linecap="round" stroke-linejoin="bevel" transform="matrix(1,0,0,1,0,0)"
font-family="MS Shell Dlg 2" font-size="264.583" font-weight="400" font-style="normal" 
>
<polyline fill="none" vector-effect="none" points="1015,1820 1085,1750 " />
</g>

<g fill="none" stroke="#ffffff" stroke-opacity="1" stroke-width="100" stroke-linecap="round" stroke-linejoin="bevel" transform="matrix(1,0,0,1,0,0)"
font-family="MS Shell Dlg 2" font-size="264.583" font-weight="400" font-style="normal" 
>
<polyline fill="none" vector-effect="none" points="2001,1820 1355,1820 " />
</g>

<g fill="#ffffff" fill-opacity="1" stroke="none" transform="matrix(1,0,0,1,0,0)"
font-family="MS Shell Dlg 2" font-size="264.583" font-weight="400" font-style="normal" 
>
<path vector-effect="non-scaling-stroke" fill-rule="evenodd" d="M1405,1820 C1405,1847.61 1382.61,1870 1355,1870 C1327.39,1870 1305,1847.61 1305,1820 C1305,1792.39 1327.39,1770 1355,1770 C1382.61,1770 1405,1792.39 1405,1820 "/>
</g>

<g fill="none" stroke="#ffffff" stroke-opacity="1" stroke-width="100" stroke-linecap="round" stroke-linejoin="bevel" transform="matrix(1,0,0,1,0,0)"
font-family="MS Shell Dlg 2" font-size="264.583" font-weight="400" font-style="normal" 
>
<polyline fill="none" vector-effect="none" points="1355,1820 1285,1750 " />
</g>

<g fill="none" stroke="#ffffff" stroke-opacity="1" stroke-width="100" stroke-linecap="round" stroke-linejoin="bevel" transform="matrix(1,0,0,1,0,0)"
font-family="MS Shell Dlg 2" font-size="264.583" font-weight="400" font-style="normal" 
>
<polyline fill="none" vector-effect="none" points="1285,1550 1306,1550 " />
</g>

<g fill="#ffffff" fill-opacity="1" stroke="none" transform="matrix(1,0,0,1,0,0)"
font-family="MS Shell Dlg 2" font-size="264.583" font-weight="400" font-style="normal" 
>
<path vector-effect="non-scaling-stroke" fill-rule="evenodd" d="M1356,1550 C1356,1577.61 1333.61,1600 1306,1600 C1278.39,1600 1256,1577.61 1256,1550 C1256,1522.39 1278.39,1500 1306,1500 C1333.61,1500 1356,1522.39 1356,1550 "/>
</g>

<g fill="none" stroke="#ffffff" stroke-opacity="1" stroke-width="100" stroke-linecap="round" stroke-linejoin="bevel" transform="matrix(1,0,0,1,0,0)"
font-family="MS Shell Dlg 2" font-size="264.583" font-weight="400" font-style="normal" 
>
<polyline fill="none" vector-effect="none" points="1306,1550 1322,1566 " />
</g>

<g fill="#ffffff" fill-opacity="1" stroke="none" transform="matrix(1,0,0,1,0,0)"
font-family="MS Shell Dlg 2" font-size="264.583" font-weight="400" font-style="normal" 
>
<path vector-effect="non-scaling-stroke" fill-rule="evenodd" d="M1372,1566 C1372,1593.61 1349.61,1616 1322,1616 C1294.39,1616 1272,1593.61 1272,1566 C1272,1538.39 1294.39,1516 1322,1516 C1349.61,1516 1372,1538.39 1372,1566 "/>
</g>

<g fill="none" stroke="#ffffff" stroke-opacity="1" stroke-width="100" stroke-linecap="round" stroke-linejoin="bevel" transform="matrix(1,0,0,1,0,0)"
font-family="MS Shell Dlg 2" font-size="264.583" font-weight="400" font-style="normal" 
>
<polyline fill="none" vector-effect="none" points="1322,1566 2001,1566 " />
</g>

<g fill="none" stroke="#ffffff" stroke-opacity="1" stroke-width="100" stroke-linecap="round" stroke-linejoin="bevel" transform="matrix(1,0,0,1,0,0)"
font-family="MS Shell Dlg 2" font-size="264.583" font-weight="400" font-style="normal" 
>
<polyline fill="none" vector-effect="none" points="1285,1350 1976,1350 " />
</g>

<g fill="#ffffff" fill-opacity="1" stroke="none" transform="matrix(1,0,0,1,0,0)"
font-family="MS Shell Dlg 2" font-size="264.583" font-weight="400" font-style="normal" 
>
<path vector-effect="non-scaling-stroke" fill-rule="evenodd" d="M2026,1350 C2026,1377.61 2003.61,1400 1976,1400 C1948.39,1400 1926,1377.61 1926,1350 C1926,1322.39 1948.39,1300 1976,1300 C2003.61,1300 2026,1322.39 2026,1350 "/>
</g>

<g fill="none" stroke="#ffffff" stroke-opacity="1" stroke-width="100" stroke-linecap="round" stroke-linejoin="bevel" transform="matrix(1,0,0,1,0,0)"
font-family="MS Shell Dlg 2" font-size="264.583" font-weight="400" font-style="normal" 
>
<polyline fill="none" vector-effect="none" points="1976,1350 2014,1312 " />
</g>

<g fill="#ffffff" fill-opacity="1" stroke="none" transform="matrix(1,0,0,1,0,0)"
font-family="MS Shell Dlg 2" font-size="264.583" font-weight="400" font-style="normal" 
>
<path vector-effect="non-scaling-stroke" fill-rule="evenodd" d="M2064,1312 C2064,1339.61 2041.61,1362 2014,1362 C1986.39,1362 1964,1339.61 1964,1312 C1964,1284.39 1986.39,1262 2014,1262 C2041.61,1262 2064,1284.39 2064,1312 "/>
</g>

<g fill="none" stroke="#ffffff" stroke-opacity="1" stroke-width="100" stroke-linecap="round" stroke-linejoin="bevel" transform="matrix(1,0,0,1,0,0)"
font-family="MS Shell Dlg 2" font-size="264.583" font-weight="400" font-style="normal" 
>
<polyline fill="none" vector-effect="none" points="2014,1312 2001,1312 " />
</g>

<g fill="none" stroke="#ffffff" stroke-opacity="1" stroke-width="100" stroke-linecap="round" stroke-linejoin="bevel" transform="matrix(1,0,0,1,0,0)"
font-family="MS Shell Dlg 2" font-size="264.583" font-weight="400" font-style="normal" 
>
<polyline fill="none" vector-effect="none" points="1085,1550 1069,1566 " />
</g>

<g fill="#ffffff" fill-opacity="1" stroke="none" transform="matrix(1,0,0,1,0,0)"
font-family="MS Shell Dlg 2" font-size="264.583" font-weight="400" font-style="normal" 
>
<path vector-effect="non-scaling-stroke" fill-rule="evenodd" d="M1119,1566 C1119,1593.61 1096.61,1616 1069,1616 C1041.39,1616 1019,1593.61 1019,1566 C1019,1538.39 1041.39,1516 1069,1516 C1096.61,1516 1119,1538.39 1119,1566 "/>
</g>

<g fill="none" stroke="#ffffff" stroke-opacity="1" stroke-width="100" stroke-linecap="round" stroke-linejoin="bevel" transform="matrix(1,0,0,1,0,0)"
font-family="MS Shell Dlg 2" font-size="264.583" font-weight="400" font-style="normal" 
>
<polyline fill="none" vector-effect="none" points="1069,1566 350,1566 " />
</g>

<g fill="none" stroke="#ffffff" stroke-opacity="1" stroke-width="100" stroke-linecap="round" stroke-linejoin="bevel" transform="matrix(1,0,0,1,0,0)"
font-family="MS Shell Dlg 2" font-size="264.583" font-weight="400" font-style="normal" 
>
<polyline fill="none" vector-effect="none" points="1085,1350 388,1350 " />
</g>

<g fill="#ffffff" fill-opacity="1" stroke="none" transform="matrix(1,0,0,1,0,0)"
font-family="MS Shell Dlg 2" font-size="264.583" font-weight="400" font-style="normal" 
>
<path vector-effect="non-scaling-stroke" fill-rule="evenodd" d="M438,1350 C438,1377.61 415.614,1400 388,1400 C360.386,1400 338,1377.61 338,1350 C338,1322.39 360.386,1300 388,1300 C415.614,1300 438,1322.39 438,1350 "/>
</g>

<g fill="none" stroke="#ffffff" stroke-opacity="1" stroke-width="100" stroke-linecap="round" stroke-linejoin="bevel" transform="matrix(1,0,0,1,0,0)"
font-family="MS Shell Dlg 2" font-size="264.583" font-weight="400" font-style="normal" 
>
<polyline fill="none" vector-effect="none" points="388,1350 350,1312 " />
</g>

<g fill="none" stroke="#ffffff" stroke-opacity="1" stroke-width="100" stroke-linecap="round" stroke-linejoin="bevel" transform="matrix(1,0,0,1,0,0)"
font-family="MS Shell Dlg 2" font-size="264.583" font-weight="400" font-style="normal" 
>
<polyline fill="none" vector-effect="none" points="1285,1150 1751,1150 " />
</g>

<g fill="#ffffff" fill-opacity="1" stroke="none" transform="matrix(1,0,0,1,0,0)"
font-family="MS Shell Dlg 2" font-size="264.583" font-weight="400" font-style="normal" 
>
<path vector-effect="non-scaling-stroke" fill-rule="evenodd" d="M1801,1150 C1801,1177.61 1778.61,1200 1751,1200 C1723.39,1200 1701,1177.61 1701,1150 C1701,1122.39 1723.39,1100 1751,1100 C1778.61,1100 1801,1122.39 1801,1150 "/>
</g>

<g fill="none" stroke="#ffffff" stroke-opacity="1" stroke-width="100" stroke-linecap="round" stroke-linejoin="bevel" transform="matrix(1,0,0,1,0,0)"
font-family="MS Shell Dlg 2" font-size="264.583" font-weight="400" font-style="normal" 
>
<polyline fill="none" vector-effect="none" points="1751,1150 1801,1099 " />
</g>

<g fill="#ffffff" fill-opacity="1" stroke="none" transform="matrix(1,0,0,1,0,0)"
font-family="MS Shell Dlg 2" font-size="264.583" font-weight="400" font-style="normal" 
>
<path vector-effect="non-scaling-stroke" fill-rule="evenodd" d="M1851,1099 C1851,1126.61 1828.61,1149 1801,1149 C1773.39,1149 1751,1126.61 1751,1099 C1751,1071.39 1773.39,1049 1801,1049 C1828.61,1049 1851,1071.39 1851,1099 "/>
</g>

<g fill="none" stroke="#ffffff" stroke-opacity="1" stroke-width="100" stroke-linecap="round" stroke-linejoin="bevel" transform="matrix(1,0,0,1,0,0)"
font-family="MS Shell Dlg 2" font-size="264.583" font-weight="400" font-style="normal" 
>
<polyline fill="none" vector-effect="none" points="1801,1099 1843,1058 " />
</g>

<g fill="#ffffff" fill-opacity="1" stroke="none" transform="matrix(1,0,0,1,0,0)"
font-family="MS Shell Dlg 2" font-size="264.583" font-weight="400" font-style="normal" 
>
<path vector-effect="non-scaling-stroke" fill-rule="evenodd" d="M1893,1058 C1893,1085.61 1870.61,1108 1843,1108 C1815.39,1108 1793,1085.61 1793,1058 C1793,1030.39 1815.39,1008 1843,1008 C1870.61,1008 1893,1030.39 1893,1058 "/>
</g>

<g fill="none" stroke="#ffffff" stroke-opacity="1" stroke-width="100" stroke-linecap="round" stroke-linejoin="bevel" transform="matrix(1,0,0,1,0,0)"
font-family="MS Shell Dlg 2" font-size="264.583" font-weight="400" font-style="normal" 
>
<polyline fill="none" vector-effect="none" points="1843,1058 2001,1058 " />
</g>

<g fill="none" stroke="#ffffff" stroke-opacity="1" stroke-width="100" stroke-linecap="round" stroke-linejoin="bevel" transform="matrix(1,0,0,1,0,0)"
font-family="MS Shell Dlg 2" font-size="264.583" font-weight="400" font-style="normal" 
>
<polyline fill="none" vector-effect="none" points="1085,1150 588,1150 " />
</g>

<g fill="#ffffff" fill-opacity="1" stroke="none" transform="matrix(1,0,0,1,0,0)"
font-family="MS Shell Dlg 2" font-size="264.583" font-weight="400" font-style="normal" 
>
<path vector-effect="non-scaling-stroke" fill-rule="evenodd" d="M638,1150 C638,1177.61 615.614,1200 588,1200 C560.386,1200 538,1177.61 538,1150 C538,1122.39 560.386,1100 588,1100 C615.614,1100 638,1122.39 638,1150 "/>
</g>

<g fill="none" stroke="#ffffff" stroke-opacity="1" stroke-width="100" stroke-linecap="round" stroke-linejoin="bevel" transform="matrix(1,0,0,1,0,0)"
font-family="MS Shell Dlg 2" font-size="264.583" font-weight="400" font-style="normal" 
>
<polyline fill="none" vector-effect="none" points="588,1150 492,1054 " />
</g>

<g fill="#ffffff" fill-opacity="1" stroke="none" transform="matrix(1,0,0,1,0,0)"
font-family="MS Shell Dlg 2" font-size="264.583" font-weight="400" font-style="normal" 
>
<path vector-effect="non-scaling-stroke" fill-rule="evenodd" d="M542,1054 C542,1081.61 519.614,1104 492,1104 C464.386,1104 442,1081.61 442,1054 C442,1026.39 464.386,1004 492,1004 C519.614,1004 542,1026.39 542,1054 "/>
</g>

<g fill="none" stroke="#ffffff" stroke-opacity="1" stroke-width="100" stroke-linecap="round" stroke-linejoin="bevel" transform="matrix(1,0,0,1,0,0)"
font-family="MS Shell Dlg 2" font-size="264.583" font-weight="400" font-style="normal" 
>
<polyline fill="none" vector-effect="none" points="492,1054 354,1054 " />
</g>

<g fill="#ffffff" fill-opacity="1" stroke="none" transform="matrix(1,0,0,1,0,0)"
font-family="MS Shell Dlg 2" font-size="264.583" font-weight="400" font-style="normal" 
>
<path vector-effect="non-scaling-stroke" fill-rule="evenodd" d="M404,1054 C404,1081.61 381.614,1104 354,1104 C326.386,1104 304,1081.61 304,1054 C304,1026.39 326.386,1004 354,1004 C381.614,1004 404,1026.39 404,1054 "/>
</g>

<g fill="none" stroke="#ffffff" stroke-opacity="1" stroke-width="100" stroke-linecap="round" stroke-linejoin="bevel" transform="matrix(1,0,0,1,0,0)"
font-family="MS Shell Dlg 2" font-size="264.583" font-weight="400" font-style="normal" 
>
<polyline fill="none" vector-effect="none" points="354,1054 350,1058 " />
</g>

<g fill="none" stroke="#ffffff" stroke-opacity="1" stroke-width="100" stroke-linecap="round" stroke-linejoin="bevel" transform="matrix(1,0,0,1,0,0)"
font-family="MS Shell Dlg 2" font-size="264.583" font-weight="400" font-style="normal" 
>
<polyline fill="none" vector-effect="none" points="1285,750 1485,550 " />
</g>

<g fill="#ffffff" fill-opacity="1" stroke="none" transform="matrix(1,0,0,1,0,0)"
font-family="MS Shell Dlg 2" font-size="264.583" font-weight="400" font-style="normal" 
>
<path vector-effect="non-scaling-stroke" fill-rule="evenodd" d="M1535,550 C1535,577.614 1512.61,600 1485,600 C1457.39,600 1435,577.614 1435,550 C1435,522.386 1457.39,500 1485,500 C1512.61,500 1535,522.386 1535,550 "/>
</g>

<g fill="none" stroke="#ffffff" stroke-opacity="1" stroke-width="100" stroke-linecap="round" stroke-linejoin="bevel" transform="matrix(1,0,0,1,0,0)"
font-family="MS Shell Dlg 2" font-size="264.583" font-weight="400" font-style="normal" 
>
<polyline fill="none" vector-effect="none" points="1485,550 2001,550 " />
</g>

<g fill="none" stroke="#ffffff" stroke-opacity="1" stroke-width="100" stroke-linecap="round" stroke-linejoin="bevel" transform="matrix(1,0,0,1,0,0)"
font-family="MS Shell Dlg 2" font-size="264.583" font-weight="400" font-style="normal" 
>
<polyline fill="none" vector-effect="none" points="1085,750 885,550 " />
</g>

<g fill="#ffffff" fill-opacity="1" stroke="none" transform="matrix(1,0,0,1,0,0)"
font-family="MS Shell Dlg 2" font-size="264.583" font-weight="400" font-style="normal" 
>
<path vector-effect="non-scaling-stroke" fill-rule="evenodd" d="M935,550 C935,577.614 912.614,600 885,600 C857.386,600 835,577.614 835,550 C835,522.386 857.386,500 885,500 C912.614,500 935,522.386 935,550 "/>
</g>

<g fill="none" stroke="#ffffff" stroke-opacity="1" stroke-width="100" stroke-linecap="round" stroke-linejoin="bevel" transform="matrix(1,0,0,1,0,0)"
font-family="MS Shell Dlg 2" font-size="264.583" font-weight="400" font-style="normal" 
>
<polyline fill="none" vector-effect="none" points="885,550 350,550 " />
</g>

<g fill="none" stroke="#ffffff" stroke-opacity="1" stroke-width="100" stroke-linecap="round" stroke-linejoin="bevel" transform="matrix(1,0,0,1,0,0)"
font-family="MS Shell Dlg 2" font-size="264.583" font-weight="400" font-style="normal" 
>
<polyline fill="none" vector-effect="none" points="1285,950 1525,950 " />
</g>

<g fill="#ffffff" fill-opacity="1" stroke="none" transform="matrix(1,0,0,1,0,0)"
font-family="MS Shell Dlg 2" font-size="264.583" font-weight="400" font-style="normal" 
>
<path vector-effect="non-scaling-stroke" fill-rule="evenodd" d="M1575,950 C1575,977.614 1552.61,1000 1525,1000 C1497.39,1000 1475,977.614 1475,950 C1475,922.386 1497.39,900 1525,900 C1552.61,900 1575,922.386 1575,950 "/>
</g>

<g fill="none" stroke="#ffffff" stroke-opacity="1" stroke-width="100" stroke-linecap="round" stroke-linejoin="bevel" transform="matrix(1,0,0,1,0,0)"
font-family="MS Shell Dlg 2" font-size="264.583" font-weight="400" font-style="normal" 
>
<polyline fill="none" vector-effect="none" points="1525,950 1552,923 " />
</g>

<g fill="#ffffff" fill-opacity="1" stroke="none" transform="matrix(1,0,0,1,0,0)"
font-family="MS Shell Dlg 2" font-size="264.583" font-weight="400" font-style="normal" 
>
<path vector-effect="non-scaling-stroke" fill-rule="evenodd" d="M1602,923 C1602,950.614 1579.61,973 1552,973 C1524.39,973 1502,950.614 1502,923 C1502,895.386 1524.39,873 1552,873 C1579.61,873 1602,895.386 1602,923 "/>
</g>

<g fill="none" stroke="#ffffff" stroke-opacity="1" stroke-width="100" stroke-linecap="round" stroke-linejoin="bevel" transform="matrix(1,0,0,1,0,0)"
font-family="MS Shell Dlg 2" font-size="264.583" font-weight="400" font-style="normal" 
>
<polyline fill="none" vector-effect="none" points="1552,923 1671,804 " />
</g>

<g fill="#ffffff" fill-opacity="1" stroke="none" transform="matrix(1,0,0,1,0,0)"
font-family="MS Shell Dlg 2" font-size="264.583" font-weight="400" font-style="normal" 
>
<path vector-effect="non-scaling-stroke" fill-rule="evenodd" d="M1721,804 C1721,831.614 1698.61,854 1671,854 C1643.39,854 1621,831.614 1621,804 C1621,776.386 1643.39,754 1671,754 C1698.61,754 1721,776.386 1721,804 "/>
</g>

<g fill="none" stroke="#ffffff" stroke-opacity="1" stroke-width="100" stroke-linecap="round" stroke-linejoin="bevel" transform="matrix(1,0,0,1,0,0)"
font-family="MS Shell Dlg 2" font-size="264.583" font-weight="400" font-style="normal" 
>
<polyline fill="none" vector-effect="none" points="1671,804 2001,804 " />
</g>

<g fill="none" stroke="#ffffff" stroke-opacity="1" stroke-width="100" stroke-linecap="round" stroke-linejoin="bevel" transform="matrix(1,0,0,1,0,0)"
font-family="MS Shell Dlg 2" font-size="264.583" font-weight="400" font-style="normal" 
>
<polyline fill="none" vector-effect="none" points="1085,950 901,950 " />
</g>

<g fill="#ffffff" fill-opacity="1" stroke="none" transform="matrix(1,0,0,1,0,0)"
font-family="MS Shell Dlg 2" font-size="264.583" font-weight="400" font-style="normal" 
>
<path vector-effect="non-scaling-stroke" fill-rule="evenodd" d="M951,950 C951,977.614 928.614,1000 901,1000 C873.386,1000 851,977.614 851,950 C851,922.386 873.386,900 901,900 C928.614,900 951,922.386 951,950 "/>
</g>

<g fill="none" stroke="#ffffff" stroke-opacity="1" stroke-width="100" stroke-linecap="round" stroke-linejoin="bevel" transform="matrix(1,0,0,1,0,0)"
font-family="MS Shell Dlg 2" font-size="264.583" font-weight="400" font-style="normal" 
>
<polyline fill="none" vector-effect="none" points="901,950 759,808 " />
</g>

<g fill="#ffffff" fill-opacity="1" stroke="none" transform="matrix(1,0,0,1,0,0)"
font-family="MS Shell Dlg 2" font-size="264.583" font-weight="400" font-style="normal" 
>
<path vector-effect="non-scaling-stroke" fill-rule="evenodd" d="M809,808 C809,835.614 786.614,858 759,858 C731.386,858 709,835.614 709,808 C709,780.386 731.386,758 759,758 C786.614,758 809,780.386 809,808 "/>
</g>

<g fill="none" stroke="#ffffff" stroke-opacity="1" stroke-width="100" stroke-linecap="round" stroke-linejoin="bevel" transform="matrix(1,0,0,1,0,0)"
font-family="MS Shell Dlg 2" font-size="264.583" font-weight="400" font-style="normal" 
>
<polyline fill="none" vector-effect="none" points="759,808 354,808 " />
</g>

<g fill="#ffffff" fill-opacity="1" stroke="none" transform="matrix(1,0,0,1,0,0)"
font-family="MS Shell Dlg 2" font-size="264.583" font-weight="400" font-style="normal" 
>
<path vector-effect="non-scaling-stroke" fill-rule="evenodd" d="M404,808 C404,835.614 381.614,858 354,858 C326.386,858 304,835.614 304,808 C304,780.386 326.386,758 354,758 C381.614,758 404,780.386 404,808 "/>
</g>

<g fill="none" stroke="#ffffff" stroke-opacity="1" stroke-width="100" stroke-linecap="round" stroke-linejoin="bevel" transform="matrix(1,0,0,1,0,0)"
font-family="MS Shell Dlg 2" font-size="264.583" font-weight="400" font-style="normal" 
>
<polyline fill="none" vector-effect="none" points="354,808 350,804 " />
</g>

<g fill="#ffffff" fill-opacity="1" stroke="none" transform="matrix(1,0,0,1,0,0)"
font-family="MS Shell Dlg 2" font-size="264.583" font-weight="400" font-style="normal" 
>
<path vector-effect="non-scaling-stroke" fill-rule="evenodd" d="M2101,550 C2101,605.228 2056.23,650 2001,650 C1945.77,650 1901,605.228 1901,550 C1901,494.772 1945.77,450 2001,450 C2056.23,450 2101,494.772 2101,550 "/>
</g>

<g fill="#000000" fill-opacity="1" stroke="none" transform="matrix(1,0,0,1,0,0)"
font-family="MS Shell Dlg 2" font-size="264.583" font-weight="400" font-style="normal" 
>
<path vector-effect="non-scaling-stroke" fill-rule="evenodd" d="M2051,550 C2051,577.614 2028.61,600 2001,600 C1973.39,600 1951,577.614 1951,550 C1951,522.386 1973.39,500 2001,500 C2028.61,500 2051,522.386 2051,550 "/>
</g>

<g fill="#ffffff" fill-opacity="1" stroke="none" transform="matrix(1,0,0,1,0,0)"
font-family="MS Shell Dlg 2" font-size="264.583" font-weight="400" font-style="normal" 
>
<path vector-effect="non-scaling-stroke" fill-rule="evenodd" d="M2101,804 C2101,859.228 2056.23,904 2001,904 C1945.77,904 1901,859.228 1901,804 C1901,748.772 1945.77,704 2001,704 C2056.23,704 2101,748.772 2101,804 "/>
</g>

<g fill="#000000" fill-opacity="1" stroke="none" transform="matrix(1,0,0,1,0,0)"
font-family="MS Shell Dlg 2" font-size="264.583" font-weight="400" font-style="normal" 
>
<path vector-effect="non-scaling-stroke" fill-rule="evenodd" d="M2051,804 C2051,831.614 2028.61,854 2001,854 C1973.39,854 1951,831.614 1951,804 C1951,776.386 1973.39,754 2001,754 C2028.61,754 2051,776.386 2051,804 "/>
</g>

<g fill="#ffffff" fill-opacity="1" stroke="none" transform="matrix(1,0,0,1,0,0)"
font-family="MS Shell Dlg 2" font-size="264.583" font-weight="400" font-style="normal" 
>
<path vector-effect="non-scaling-stroke" fill-rule="evenodd" d="M2101,1058 C2101,1113.23 2056.23,1158 2001,1158 C1945.77,1158 1901,1113.23 1901,1058 C1901,1002.77 1945.77,958 2001,958 C2056.23,958 2101,1002.77 2101,1058 "/>
</g>

<g fill="#000000" fill-opacity="1" stroke="none" transform="matrix(1,0,0,1,0,0)"
font-family="MS Shell Dlg 2" font-size="264.583" font-weight="400" font-style="normal" 
>
<path vector-effect="non-scaling-stroke" fill-rule="evenodd" d="M2051,1058 C2051,1085.61 2028.61,1108 2001,1108 C1973.39,1108 1951,1085.61 1951,1058 C1951,1030.39 1973.39,1008 2001,1008 C2028.61,1008 2051,1030.39 2051,1058 "/>
</g>

<g fill="#ffffff" fill-opacity="1" stroke="none" transform="matrix(1,0,0,1,0,0)"
font-family="MS Shell Dlg 2" font-size="264.583" font-weight="400" font-style="normal" 
>
<path vector-effect="non-scaling-stroke" fill-rule="evenodd" d="M2101,1312 C2101,1367.23 2056.23,1412 2001,1412 C1945.77,1412 1901,1367.23 1901,1312 C1901,1256.77 1945.77,1212 2001,1212 C2056.23,1212 2101,1256.77 2101,1312 "/>
</g>

<g fill="#000000" fill-opacity="1" stroke="none" transform="matrix(1,0,0,1,0,0)"
font-family="MS Shell Dlg 2" font-size="264.583" font-weight="400" font-style="normal" 
>
<path vector-effect="non-scaling-stroke" fill-rule="evenodd" d="M2051,1312 C2051,1339.61 2028.61,1362 2001,1362 C1973.39,1362 1951,1339.61 1951,1312 C1951,1284.39 1973.39,1262 2001,1262 C2028.61,1262 2051,1284.39 2051,1312 "/>
</g>

<g fill="#ffffff" fill-opacity="1" stroke="none" transform="matrix(1,0,0,1,0,0)"
font-family="MS Shell Dlg 2" font-size="264.583" font-weight="400" font-style="normal" 
>
<path vector-effect="non-scaling-stroke" fill-rule="evenodd" d="M2101,1566 C2101,1621.23 2056.23,1666 2001,1666 C1945.77,1666 1901,1621.23 1901,1566 C1901,1510.77 1945.77,1466 2001,1466 C2056.23,1466 2101,1510.77 2101,1566 "/>
</g>

<g fill="#000000" fill-opacity="1" stroke="none" transform="matrix(1,0,0,1,0,0)"
font-family="MS Shell Dlg 2" font-size="264.583" font-weight="400" font-style="normal" 
>
<path vector-effect="non-scaling-stroke" fill-rule="evenodd" d="M2051,1566 C2051,1593.61 2028.61,1616 2001,1616 C1973.39,1616 1951,1593.61 1951,1566 C1951,1538.39 1973.39,1516 2001,1516 C2028.61,1516 2051,1538.39 2051,1566 "/>
</g>

<g fill="#ffffff" fill-opacity="1" stroke="none" transform="matrix(1,0,0,1,0,0)"
font-family="MS Shell Dlg 2" font-size="264.583" font-weight="400" font-style="normal" 
>
<path vector-effect="non-scaling-stroke" fill-rule="evenodd" d="M2101,1820 C2101,1875.23 2056.23,1920 2001,1920 C1945.77,1920 1901,1875.23 1901,1820 C1901,1764.77 1945.77,1720 2001,1720 C2056.23,1720 2101,1764.77 2101,1820 "/>
</g>

<g fill="#000000" fill-opacity="1" stroke="none" transform="matrix(1,0,0,1,0,0)"
font-family="MS Shell Dlg 2" font-size="264.583" font-weight="400" font-style="normal" 
>
<path vector-effect="non-scaling-stroke" fill-rule="evenodd" d="M2051,1820 C2051,1847.61 2028.61,1870 2001,1870 C1973.39,1870 1951,1847.61 1951,1820 C1951,1792.39 1973.39,1770 2001,1770 C2028.61,1770 2051,1792.39 2051,1820 "/>
</g>

<g fill="#ffffff" fill-opacity="1" stroke="none" transform="matrix(1,0,0,1,0,0)"
font-family="MS Shell Dlg 2" font-size="264.583" font-weight="400" font-style="normal" 
>
<path vector-effect="non-scaling-stroke" fill-rule="evenodd" d="M450,550 C450,605.228 405.228,650 350,650 C294.772,650 250,605.228 250,550 C250,494.772 294.772,450 350,450 C405.228,450 450,494.772 450,550 "/>
</g>

<g fill="#000000" fill-opacity="1" stroke="none" transform="matrix(1,0,0,1,0,0)"
font-family="MS Shell Dlg 2" font-size="264.583" font-weight="400" font-style="normal" 
>
<path vector-effect="non-scaling-stroke" fill-rule="evenodd" d="M400,550 C400,577.614 377.614,600 350,600 C322.386,600 300,577.614 300,550 C300,522.386 322.386,500 350,500 C377.614,500 400,522.386 400,550 "/>
</g>

<g fill="#ffffff" fill-opacity="1" stroke="none" transform="matrix(1,0,0,1,0,0)"
font-family="MS Shell Dlg 2" font-size="264.583" font-weight="400" font-style="normal" 
>
<path vector-effect="non-scaling-stroke" fill-rule="evenodd" d="M450,804 C450,859.228 405.228,904 350,904 C294.772,904 250,859.228 250,804 C250,748.772 294.772,704 350,704 C405.228,704 450,748.772 450,804 "/>
</g>

<g fill="#000000" fill-opacity="1" stroke="none" transform="matrix(1,0,0,1,0,0)"
font-family="MS Shell Dlg 2" font-size="264.583" font-weight="400" font-style="normal" 
>
<path vector-effect="non-scaling-stroke" fill-rule="evenodd" d="M400,804 C400,831.614 377.614,854 350,854 C322.386,854 300,831.614 300,804 C300,776.386 322.386,754 350,754 C377.614,754 400,776.386 400,804 "/>
</g>

<g fill="#ffffff" fill-opacity="1" stroke="none" transform="matrix(1,0,0,1,0,0)"
font-family="MS Shell Dlg 2" font-size="264.583" font-weight="400" font-style="normal" 
>
<path vector-effect="non-scaling-stroke" fill-rule="evenodd" d="M450,1058 C450,1113.23 405.228,1158 350,1158 C294.772,1158 250,1113.23 250,1058 C250,1002.77 294.772,958 350,958 C405.228,958 450,1002.77 450,1058 "/>
</g>

<g fill="#000000" fill-opacity="1" stroke="none" transform="matrix(1,0,0,1,0,0)"
font-family="MS Shell Dlg 2" font-size="264.583" font-weight="400" font-style="normal" 
>
<path vector-effect="non-scaling-stroke" fill-rule="evenodd" d="M400,1058 C400,1085.61 377.614,1108 350,1108 C322.386,1108 300,1085.61 300,1058 C300,1030.39 322.386,1008 350,1008 C377.614,1008 400,1030.39 400,1058 "/>
</g>

<g fill="#ffffff" fill-opacity="1" stroke="none" transform="matrix(1,0,0,1,0,0)"
font-family="MS Shell Dlg 2" font-size="264.583" font-weight="400" font-style="normal" 
>
<path vector-effect="non-scaling-stroke" fill-rule="evenodd" d="M450,1312 C450,1367.23 405.228,1412 350,1412 C294.772,1412 250,1367.23 250,1312 C250,1256.77 294.772,1212 350,1212 C405.228,1212 450,1256.77 450,1312 "/>
</g>

<g fill="#000000" fill-opacity="1" stroke="none" transform="matrix(1,0,0,1,0,0)"
font-family="MS Shell Dlg 2" font-size="264.583" font-weight="400" font-style="normal" 
>
<path vector-effect="non-scaling-stroke" fill-rule="evenodd" d="M400,1312 C400,1339.61 377.614,1362 350,1362 C322.386,1362 300,1339.61 300,1312 C300,1284.39 322.386,1262 350,1262 C377.614,1262 400,1284.39 400,1312 "/>
</g>

<g fill="#ffffff" fill-opacity="1" stroke="none" transform="matrix(1,0,0,1,0,0)"
font-family="MS Shell Dlg 2" font-size="264.583" font-weight="400" font-style="normal" 
>
<path vector-effect="non-scaling-stroke" fill-rule="evenodd" d="M450,1566 C450,1621.23 405.228,1666 350,1666 C294.772,1666 250,1621.23 250,1566 C250,1510.77 294.772,1466 350,1466 C405.228,1466 450,1510.77 450,1566 "/>
</g>

<g fill="#000000" fill-opacity="1" stroke="none" transform="matrix(1,0,0,1,0,0)"
font-family="MS Shell Dlg 2" font-size="264.583" font-weight="400" font-style="normal" 
>
<path vector-effect="non-scaling-stroke" fill-rule="evenodd" d="M400,1566 C400,1593.61 377.614,1616 350,1616 C322.386,1616 300,1593.61 300,1566 C300,1538.39 322.386,1516 350,1516 C377.614,1516 400,1538.39 400,1566 "/>
</g>

<g fill="#ffffff" fill-opacity="1" stroke="none" transform="matrix(1,0,0,1,0,0)"
font-family="MS Shell Dlg 2" font-size="264.583" font-weight="400" font-style="normal" 
>
<path vector-effect="non-scaling-stroke" fill-rule="evenodd" d="M450,1820 C450,1875.23 405.228,1920 350,1920 C294.772,1920 250,1875.23 250,1820 C250,1764.77 294.772,1720 350,1720 C405.228,1720 450,1764.77 450,1820 "/>
</g>

<g fill="#000000" fill-opacity="1" stroke="none" transform="matrix(1,0,0,1,0,0)"
font-family="MS Shell Dlg 2" font-size="264.583" font-weight="400" font-style="normal" 
>
<path vector-effect="non-scaling-stroke" fill-rule="evenodd" d="M400,1820 C400,1847.61 377.614,1870 350,1870 C322.386,1870 300,1847.61 300,1820 C300,1792.39 322.386,1770 350,1770 C377.614,1770 400,1792.39 400,1820 "/>
</g>

<g fill="#ffffff" fill-opacity="1" stroke="none" transform="matrix(1,0,0,1,0,0)"
font-family="MS Shell Dlg 2" font-size="264.583" font-weight="400" font-style="normal" 
>
<path vector-effect="non-scaling-stroke" fill-rule="evenodd" d="M1165,750 C1165,794.183 1129.18,830 1085,830 C1040.82,830 1005,794.183 1005,750 C1005,705.817 1040.82,670 1085,670 C1129.18,670 1165,705.817 1165,750 "/>
</g>

<g fill="#000000" fill-opacity="1" stroke="none" transform="matrix(1,0,0,1,0,0)"
font-family="MS Shell Dlg 2" font-size="264.583" font-weight="400" font-style="normal" 
>
<path vector-effect="non-scaling-stroke" fill-rule="evenodd" d="M1110,750 C1110,763.807 1098.81,775 1085,775 C1071.19,775 1060,763.807 1060,750 C1060,736.193 1071.19,725 1085,725 C1098.81,725 1110,736.193 1110,750 "/>
</g>

<g fill="#ffffff" fill-opacity="1" stroke="none" transform="matrix(1,0,0,1,0,0)"
font-family="MS Shell Dlg 2" font-size="264.583" font-weight="400" font-style="normal" 
>
<path vector-effect="non-scaling-stroke" fill-rule="evenodd" d="M1365,750 C1365,794.183 1329.18,830 1285,830 C1240.82,830 1205,794.183 1205,750 C1205,705.817 1240.82,670 1285,670 C1329.18,670 1365,705.817 1365,750 "/>
</g>

<g fill="#000000" fill-opacity="1" stroke="none" transform="matrix(1,0,0,1,0,0)"
font-family="MS Shell Dlg 2" font-size="264.583" font-weight="400" font-style="normal" 
>
<path vector-effect="non-scaling-stroke" fill-rule="evenodd" d="M1310,750 C1310,763.807 1298.81,775 1285,775 C1271.19,775 1260,763.807 1260,750 C1260,736.193 1271.19,725 1285,725 C1298.81,725 1310,736.193 1310,750 "/>
</g>

<g fill="#ffffff" fill-opacity="1" stroke="none" transform="matrix(1,0,0,1,0,0)"
font-family="MS Shell Dlg 2" font-size="264.583" font-weight="400" font-style="normal" 
>
<path vector-effect="non-scaling-stroke" fill-rule="evenodd" d="M1165,950 C1165,994.183 1129.18,1030 1085,1030 C1040.82,1030 1005,994.183 1005,950 C1005,905.817 1040.82,870 1085,870 C1129.18,870 1165,905.817 1165,950 "/>
</g>

<g fill="#000000" fill-opacity="1" stroke="none" transform="matrix(1,0,0,1,0,0)"
font-family="MS Shell Dlg 2" font-size="264.583" font-weight="400" font-style="normal" 
>
<path vector-effect="non-scaling-stroke" fill-rule="evenodd" d="M1110,950 C1110,963.807 1098.81,975 1085,975 C1071.19,975 1060,963.807 1060,950 C1060,936.193 1071.19,925 1085,925 C1098.81,925 1110,936.193 1110,950 "/>
</g>

<g fill="#ffffff" fill-opacity="1" stroke="none" transform="matrix(1,0,0,1,0,0)"
font-family="MS Shell Dlg 2" font-size="264.583" font-weight="400" font-style="normal" 
>
<path vector-effect="non-scaling-stroke" fill-rule="evenodd" d="M1365,950 C1365,994.183 1329.18,1030 1285,1030 C1240.82,1030 1205,994.183 1205,950 C1205,905.817 1240.82,870 1285,870 C1329.18,870 1365,905.817 1365,950 "/>
</g>

<g fill="#000000" fill-opacity="1" stroke="none" transform="matrix(1,0,0,1,0,0)"
font-family="MS Shell Dlg 2" font-size="264.583" font-weight="400" font-style="normal" 
>
<path vector-effect="non-scaling-stroke" fill-rule="evenodd" d="M1310,950 C1310,963.807 1298.81,975 1285,975 C1271.19,975 1260,963.807 1260,950 C1260,936.193 1271.19,925 1285,925 C1298.81,925 1310,936.193 1310,950 "/>
</g>

<g fill="#ffffff" fill-opacity="1" stroke="none" transform="matrix(1,0,0,1,0,0)"
font-family="MS Shell Dlg 2" font-size="264.583" font-weight="400" font-style="normal" 
>
<path vector-effect="non-scaling-stroke" fill-rule="evenodd" d="M1165,1150 C1165,1194.18 1129.18,1230 1085,1230 C1040.82,1230 1005,1194.18 1005,1150 C1005,1105.82 1040.82,1070 1085,1070 C1129.18,1070 1165,1105.82 1165,1150 "/>
</g>

<g fill="#000000" fill-opacity="1" stroke="none" transform="matrix(1,0,0,1,0,0)"
font-family="MS Shell Dlg 2" font-size="264.583" font-weight="400" font-style="normal" 
>
<path vector-effect="non-scaling-stroke" fill-rule="evenodd" d="M1110,1150 C1110,1163.81 1098.81,1175 1085,1175 C1071.19,1175 1060,1163.81 1060,1150 C1060,1136.19 1071.19,1125 1085,1125 C1098.81,1125 1110,1136.19 1110,1150 "/>
</g>

<g fill="#ffffff" fill-opacity="1" stroke="none" transform="matrix(1,0,0,1,0,0)"
font-family="MS Shell Dlg 2" font-size="264.583" font-weight="400" font-style="normal" 
>
<path vector-effect="non-scaling-stroke" fill-rule="evenodd" d="M1365,1150 C1365,1194.18 1329.18,1230 1285,1230 C1240.82,1230 1205,1194.18 1205,1150 C1205,1105.82 1240.82,1070 1285,1070 C1329.18,1070 1365,1105.82 1365,1150 "/>
</g>

<g fill="#000000" fill-opacity="1" stroke="none" transform="matrix(1,0,0,1,0,0)"
font-family="MS Shell Dlg 2" font-size="264.583" font-weight="400" font-style="normal" 
>
<path vector-effect="non-scaling-stroke" fill-rule="evenodd" d="M1310,1150 C1310,1163.81 1298.81,1175 1285,1175 C1271.19,1175 1260,1163.81 1260,1150 C1260,1136.19 1271.19,1125 1285,1125 C1298.81,1125 1310,1136.19 1310,1150 "/>
</g>

<g fill="#ffffff" fill-opacity="1" stroke="none" transform="matrix(1,0,0,1,0,0)"
font-family="MS Shell Dlg 2" font-size="264.583" font-weight="400" font-style="normal" 
>
<path vector-effect="non-scaling-stroke" fill-rule="evenodd" d="M1165,1350 C1165,1394.18 1129.18,1430 1085,1430 C1040.82,1430 1005,1394.18 1005,1350 C1005,1305.82 1040.82,1270 1085,1270 C1129.18,1270 1165,1305.82 1165,1350 "/>
</g>

<g fill="#000000" fill-opacity="1" stroke="none" transform="matrix(1,0,0,1,0,0)"
font-family="MS Shell Dlg 2" font-size="264.583" font-weight="400" font-style="normal" 
>
<path vector-effect="non-scaling-stroke" fill-rule="evenodd" d="M1110,1350 C1110,1363.81 1098.81,1375 1085,1375 C1071.19,1375 1060,1363.81 1060,1350 C1060,1336.19 1071.19,1325 1085,1325 C1098.81,1325 1110,1336.19 1110,1350 "/>
</g>

<g fill="#ffffff" fill-opacity="1" stroke="none" transform="matrix(1,0,0,1,0,0)"
font-family="MS Shell Dlg 2" font-size="264.583" font-weight="400" font-style="normal" 
>
<path vector-effect="non-scaling-stroke" fill-rule="evenodd" d="M1365,1350 C1365,1394.18 1329.18,1430 1285,1430 C1240.82,1430 1205,1394.18 1205,1350 C1205,1305.82 1240.82,1270 1285,1270 C1329.18,1270 1365,1305.82 1365,1350 "/>
</g>

<g fill="#000000" fill-opacity="1" stroke="none" transform="matrix(1,0,0,1,0,0)"
font-family="MS Shell Dlg 2" font-size="264.583" font-weight="400" font-style="normal" 
>
<path vector-effect="non-scaling-stroke" fill-rule="evenodd" d="M1310,1350 C1310,1363.81 1298.81,1375 1285,1375 C1271.19,1375 1260,1363.81 1260,1350 C1260,1336.19 1271.19,1325 1285,1325 C1298.81,1325 1310,1336.19 1310,1350 "/>
</g>

<g fill="#ffffff" fill-opacity="1" stroke="none" transform="matrix(1,0,0,1,0,0)"
font-family="MS Shell Dlg 2" font-size="264.583" font-weight="400" font-style="normal" 
>
<path vector-effect="non-scaling-stroke" fill-rule="evenodd" d="M1165,1550 C1165,1594.18 1129.18,1630 1085,1630 C1040.82,1630 1005,1594.18 1005,1550 C1005,1505.82 1040.82,1470 1085,1470 C1129.18,1470 1165,1505.82 1165,1550 "/>
</g>

<g fill="#000000" fill-opacity="1" stroke="none" transform="matrix(1,0,0,1,0,0)"
font-family="MS Shell Dlg 2" font-size="264.583" font-weight="400" font-style="normal" 
>
<path vector-effect="non-scaling-stroke" fill-rule="evenodd" d="M1110,1550 C1110,1563.81 1098.81,1575 1085,1575 C1071.19,1575 1060,1563.81 1060,1550 C1060,1536.19 1071.19,1525 1085,1525 C1098.81,1525 1110,1536.19 1110,1550 "/>
</g>

<g fill="#ffffff" fill-opacity="1" stroke="none" transform="matrix(1,0,0,1,0,0)"
font-family="MS Shell Dlg 2" font-size="264.583" font-weight="400" font-style="normal" 
>
<path vector-effect="non-scaling-stroke" fill-rule="evenodd" d="M1365,1550 C1365,1594.18 1329.18,1630 1285,1630 C1240.82,1630 1205,1594.18 1205,1550 C1205,1505.82 1240.82,1470 1285,1470 C1329.18,1470 1365,1505.82 1365,1550 "/>
</g>

<g fill="#000000" fill-opacity="1" stroke="none" transform="matrix(1,0,0,1,0,0)"
font-family="MS Shell Dlg 2" font-size="264.583" font-weight="400" font-style="normal" 
>
<path vector-effect="non-scaling-stroke" fill-rule="evenodd" d="M1310,1550 C1310,1563.81 1298.81,1575 1285,1575 C1271.19,1575 1260,1563.81 1260,1550 C1260,1536.19 1271.19,1525 1285,1525 C1298.81,1525 1310,1536.19 1310,1550 "/>
</g>

<g fill="#ffffff" fill-opacity="1" stroke="none" transform="matrix(1,0,0,1,0,0)"
font-family="MS Shell Dlg 2" font-size="264.583" font-weight="400" font-style="normal" 
>
<path vector-effect="non-scaling-stroke" fill-rule="evenodd" d="M1165,1750 C1165,1794.18 1129.18,1830 1085,1830 C1040.82,1830 1005,1794.18 1005,1750 C1005,1705.82 1040.82,1670 1085,1670 C1129.18,1670 1165,1705.82 1165,1750 "/>
</g>

<g fill="#000000" fill-opacity="1" stroke="none" transform="matrix(1,0,0,1,0,0)"
font-family="MS Shell Dlg 2" font-size="264.583" font-weight="400" font-style="normal" 
>
<path vector-effect="non-scaling-stroke" fill-rule="evenodd" d="M1110,1750 C1110,1763.81 1098.81,1775 1085,1775 C1071.19,1775 1060,1763.81 1060,1750 C1060,1736.19 1071.19,1725 1085,1725 C1098.81,1725 1110,1736.19 1110,1750 "/>
</g>

<g fill="#ffffff" fill-opacity="1" stroke="none" transform="matrix(1,0,0,1,0,0)"
font-family="MS Shell Dlg 2" font-size="264.583" font-weight="400" font-style="normal" 
>
<path vector-effect="non-scaling-stroke" fill-rule="evenodd" d="M1365,1750 C1365,1794.18 1329.18,1830 1285,1830 C1240.82,1830 1205,1794.18 1205,1750 C1205,1705.82 1240.82,1670 1285,1670 C1329.18,1670 1365,1705.82 1365,1750 "/>
</g>

<g fill="#000000" fill-opacity="1" stroke="none" transform="matrix(1,0,0,1,0,0)"
font-family="MS Shell Dlg 2" font-size="264.583" font-weight="400" font-style="normal" 
>
<path vector-effect="non-scaling-stroke" fill-rule="evenodd" d="M1310,1750 C1310,1763.81 1298.81,1775 1285,1775 C1271.19,1775 1260,1763.81 1260,1750 C1260,1736.19 1271.19,1725 1285,1725 C1298.81,1725 1310,1736.19 1310,1750 "/>
</g>

<g fill="none" stroke="#ffffff" stroke-opacity="1" stroke-width="20" stroke-linecap="round" stroke-linejoin="bevel" transform="matrix(1,0,0,1,0,0)"
font-family="MS Shell Dlg 2" font-size="264.583" font-weight="400" font-style="normal" 
>
<path vector-effect="none" fill-rule="evenodd" d="M175,188 L2175,188 L2175,2188 L175,2188 L175,188"/>
</g>
</g>
</svg>
