%TF.GenerationSoftware,KiCad,Pcbnew,7.0.9*%
%TF.CreationDate,2023-12-22T15:14:44-03:00*%
%TF.ProjectId,Placa v0.1,506c6163-6120-4763-902e-312e6b696361,rev?*%
%TF.SameCoordinates,Original*%
%TF.FileFunction,Soldermask,Top*%
%TF.FilePolarity,Negative*%
%FSLAX46Y46*%
G04 Gerber Fmt 4.6, Leading zero omitted, Abs format (unit mm)*
G04 Created by KiCad (PCBNEW 7.0.9) date 2023-12-22 15:14:44*
%MOMM*%
%LPD*%
G01*
G04 APERTURE LIST*
G04 Aperture macros list*
%AMRoundRect*
0 Rectangle with rounded corners*
0 $1 Rounding radius*
0 $2 $3 $4 $5 $6 $7 $8 $9 X,Y pos of 4 corners*
0 Add a 4 corners polygon primitive as box body*
4,1,4,$2,$3,$4,$5,$6,$7,$8,$9,$2,$3,0*
0 Add four circle primitives for the rounded corners*
1,1,$1+$1,$2,$3*
1,1,$1+$1,$4,$5*
1,1,$1+$1,$6,$7*
1,1,$1+$1,$8,$9*
0 Add four rect primitives between the rounded corners*
20,1,$1+$1,$2,$3,$4,$5,0*
20,1,$1+$1,$4,$5,$6,$7,0*
20,1,$1+$1,$6,$7,$8,$9,0*
20,1,$1+$1,$8,$9,$2,$3,0*%
G04 Aperture macros list end*
%ADD10R,2.000000X2.000000*%
%ADD11C,2.000000*%
%ADD12O,2.000000X2.000000*%
%ADD13C,2.800000*%
%ADD14O,2.800000X2.800000*%
%ADD15R,3.000000X3.000000*%
%ADD16C,3.000000*%
%ADD17RoundRect,0.102000X-1.000000X-1.000000X1.000000X-1.000000X1.000000X1.000000X-1.000000X1.000000X0*%
%ADD18C,2.204000*%
%ADD19RoundRect,0.102000X1.000000X-1.000000X1.000000X1.000000X-1.000000X1.000000X-1.000000X-1.000000X0*%
%ADD20R,1.700000X1.700000*%
%ADD21C,1.700000*%
%TA.AperFunction,Profile*%
%ADD22C,0.500000*%
%TD*%
G04 APERTURE END LIST*
D10*
%TO.C,U6*%
X131900000Y-106000000D03*
D11*
X122400000Y-106000000D03*
X131900000Y-91000000D03*
X122400000Y-91000000D03*
%TD*%
D10*
%TO.C,C1*%
X92000000Y-29652651D03*
D11*
X92000000Y-26152651D03*
%TD*%
D10*
%TO.C,C6*%
X115347349Y-82000000D03*
D11*
X118847349Y-82000000D03*
%TD*%
D10*
%TO.C,U3*%
X65000000Y-100080000D03*
D12*
X65000000Y-97540000D03*
D11*
X65000000Y-95000000D03*
%TD*%
D10*
%TO.C,C4*%
X77652651Y-97000000D03*
D11*
X74152651Y-97000000D03*
%TD*%
D13*
%TO.C,R2*%
X102000000Y-40000000D03*
D14*
X117240000Y-40000000D03*
%TD*%
D15*
%TO.C,J4*%
X92000000Y-107000000D03*
D16*
X97080000Y-107000000D03*
%TD*%
D17*
%TO.C,U4*%
X64900000Y-40000000D03*
D18*
X67450000Y-40000000D03*
X70000000Y-40000000D03*
%TD*%
D10*
%TO.C,C5*%
X65460000Y-86000000D03*
D11*
X68960000Y-86000000D03*
%TD*%
D16*
%TO.C,U1*%
X64480000Y-74000000D03*
X111430000Y-74000000D03*
X64480000Y-49490000D03*
X111430000Y-49490000D03*
D19*
X72440000Y-74420000D03*
D18*
X74980000Y-74420000D03*
X77520000Y-74420000D03*
X80060000Y-74420000D03*
X82600000Y-74420000D03*
X85140000Y-74420000D03*
X87680000Y-74420000D03*
X90220000Y-74420000D03*
X92760000Y-74420000D03*
X95300000Y-74420000D03*
X97840000Y-74420000D03*
X100380000Y-74420000D03*
X102920000Y-74420000D03*
X105460000Y-74420000D03*
X108000000Y-74420000D03*
X108000000Y-49020000D03*
X105460000Y-49020000D03*
X102920000Y-49020000D03*
X100380000Y-49020000D03*
X97840000Y-49020000D03*
X95300000Y-49020000D03*
X92760000Y-49020000D03*
X90220000Y-49020000D03*
X87680000Y-49020000D03*
X85140000Y-49020000D03*
X82600000Y-49020000D03*
X80060000Y-49020000D03*
X77520000Y-49020000D03*
X74980000Y-49020000D03*
X72440000Y-49020000D03*
%TD*%
D13*
%TO.C,R4*%
X138240000Y-69000000D03*
D14*
X123000000Y-69000000D03*
%TD*%
D15*
%TO.C,J1*%
X70000000Y-28000000D03*
D16*
X75080000Y-28000000D03*
X80160000Y-28000000D03*
%TD*%
D10*
%TO.C,U2*%
X141080000Y-56000000D03*
D11*
X138540000Y-56000000D03*
X136000000Y-56000000D03*
X133460000Y-56000000D03*
X130920000Y-56000000D03*
X128380000Y-56000000D03*
X125840000Y-56000000D03*
X123300000Y-56000000D03*
X123300000Y-63620000D03*
X125840000Y-63620000D03*
X128380000Y-63620000D03*
X130920000Y-63620000D03*
X133460000Y-63620000D03*
X136000000Y-63620000D03*
X138540000Y-63620000D03*
X141080000Y-63620000D03*
%TD*%
D10*
%TO.C,C2*%
X105000000Y-29805302D03*
D11*
X105000000Y-26305302D03*
%TD*%
D15*
%TO.C,J2*%
X97460000Y-83000000D03*
D16*
X102540000Y-83000000D03*
%TD*%
D13*
%TO.C,R3*%
X122000000Y-49000000D03*
D14*
X137240000Y-49000000D03*
%TD*%
D15*
%TO.C,J3*%
X86460000Y-83000000D03*
D16*
X91540000Y-83000000D03*
%TD*%
D13*
%TO.C,R1*%
X92620000Y-40000000D03*
D14*
X77380000Y-40000000D03*
%TD*%
D10*
%TO.C,C3*%
X77500000Y-86000000D03*
D11*
X74000000Y-86000000D03*
%TD*%
D20*
%TO.C,U5*%
X159000000Y-76000000D03*
D21*
X157000000Y-76000000D03*
X159000000Y-74000000D03*
X157000000Y-74000000D03*
X159000000Y-72000000D03*
X157000000Y-72000000D03*
X159000000Y-70000000D03*
X157000000Y-70000000D03*
X159000000Y-68000000D03*
X157000000Y-68000000D03*
X159000000Y-66000000D03*
X157000000Y-66000000D03*
%TD*%
D22*
X58000000Y-21000000D02*
X178000000Y-21000000D01*
X178000000Y-111000000D01*
X58000000Y-111000000D01*
X58000000Y-21000000D01*
M02*
