M48
; DRILL file {KiCad 7.0.9} date Fri Dec 22 15:16:11 2023
; FORMAT={-:-/ absolute / inch / decimal}
; #@! TF.CreationDate,2023-12-22T15:16:11-03:00
; #@! TF.GenerationSoftware,Kicad,Pcbnew,7.0.9
; #@! TF.FileFunction,Plated,1,2,PTH
FMAT,2
INCH
; #@! TA.AperFunction,Plated,PTH,ComponentDrill
T1C0.0315
; #@! TA.AperFunction,Plated,PTH,ViaDrill
T2C0.0394
; #@! TA.AperFunction,Plated,PTH,ComponentDrill
T3C0.0394
; #@! TA.AperFunction,Plated,PTH,ComponentDrill
T4C0.0402
; #@! TA.AperFunction,Plated,PTH,ComponentDrill
T5C0.0551
; #@! TA.AperFunction,Plated,PTH,ComponentDrill
T6C0.0598
; #@! TA.AperFunction,Plated,PTH,ViaDrill
T7C0.0787
%
G90
G05
T1
X6.1811Y-2.5984
X6.1811Y-2.6772
X6.1811Y-2.7559
X6.1811Y-2.8346
X6.1811Y-2.9134
X6.1811Y-2.9921
X6.2598Y-2.5984
X6.2598Y-2.6772
X6.2598Y-2.7559
X6.2598Y-2.8346
X6.2598Y-2.9134
X6.2598Y-2.9921
T2
X2.5579Y-2.461
X2.885Y-1.739
X3.8976Y-2.7559
X4.4094Y-3.2283
X4.5669Y-2.1732
X4.6063Y-2.6772
X5.0Y-2.7165
X5.0079Y-2.3858
X5.1181Y-2.7165
X5.2362Y-2.7165
X5.6724Y-2.6567
X6.0236Y-2.9921
X6.2303Y-2.3791
X6.4961Y-2.9134
T3
X2.5551Y-1.5748
X2.5591Y-3.7402
X2.5591Y-3.8402
X2.5591Y-3.9402
X2.5772Y-3.3858
X2.6555Y-1.5748
X2.715Y-3.3858
X2.7559Y-1.5748
X2.9134Y-3.3858
X2.9194Y-3.8189
X3.0512Y-3.3858
X3.0572Y-3.8189
X3.622Y-1.0296
X3.622Y-1.1674
X4.1339Y-1.0356
X4.1339Y-1.1734
X4.5412Y-3.2283
X4.679Y-3.2283
X4.8189Y-3.5827
X4.8189Y-4.1732
X4.8543Y-2.2047
X4.8543Y-2.5047
X4.9543Y-2.2047
X4.9543Y-2.5047
X5.0543Y-2.2047
X5.0543Y-2.5047
X5.1543Y-2.2047
X5.1543Y-2.5047
X5.1929Y-3.5827
X5.1929Y-4.1732
X5.2543Y-2.2047
X5.2543Y-2.5047
X5.3543Y-2.2047
X5.3543Y-2.5047
X5.4543Y-2.2047
X5.4543Y-2.5047
X5.5543Y-2.2047
X5.5543Y-2.5047
T4
X2.852Y-1.9299
X2.852Y-2.9299
X2.952Y-1.9299
X2.952Y-2.9299
X3.052Y-1.9299
X3.052Y-2.9299
X3.152Y-1.9299
X3.152Y-2.9299
X3.252Y-1.9299
X3.252Y-2.9299
X3.352Y-1.9299
X3.352Y-2.9299
X3.452Y-1.9299
X3.452Y-2.9299
X3.552Y-1.9299
X3.552Y-2.9299
X3.652Y-1.9299
X3.652Y-2.9299
X3.752Y-1.9299
X3.752Y-2.9299
X3.852Y-1.9299
X3.852Y-2.9299
X3.952Y-1.9299
X3.952Y-2.9299
X4.052Y-1.9299
X4.052Y-2.9299
X4.152Y-1.9299
X4.152Y-2.9299
X4.252Y-1.9299
X4.252Y-2.9299
T5
X3.0465Y-1.5748
X3.6465Y-1.5748
X4.0157Y-1.5748
X4.6157Y-1.5748
X4.8031Y-1.9291
X4.8425Y-2.7165
X5.4031Y-1.9291
X5.4425Y-2.7165
T6
X2.7559Y-1.1024
X2.9559Y-1.1024
X3.1559Y-1.1024
X3.4039Y-3.2677
X3.6039Y-3.2677
X3.622Y-4.2126
X3.822Y-4.2126
X3.837Y-3.2677
X4.037Y-3.2677
T7
X2.3622Y-0.9055
X2.3622Y-4.2913
X6.9291Y-0.9055
T0
M30
